<svg xmlns="http://www.w3.org/2000/svg" xmlns:xlink="http://www.w3.org/1999/xlink" version="1.0" x="0px" y="0px" viewBox="0 0 100 125" enable-background="new 0 0 100 100" xml:space="preserve"><path d="M51.667,36.667h-3.334v6.666h3.334C53.506,43.333,55,41.839,55,40C55,38.157,53.506,36.667,51.667,36.667z"/><path d="M50,10c-18.401,0-33.333,14.915-33.333,33.333c0,9.199,3.73,17.533,9.766,23.568L50,90l23.574-23.105  c6.035-6.028,9.766-14.362,9.759-23.567C83.333,24.932,68.411,10,50,10z M51.667,50h-3.334v10h-6.666V30h10c5.521,0,10,4.476,10,10  C61.667,45.521,57.188,50,51.667,50z"/><text x="0" y="115" fill="#000000" font-size="5px" font-weight="bold" font-family="'Helvetica Neue', Helvetica, Arial-Unicode, Arial, Sans-serif">Created by Danil Polshin</text><text x="0" y="120" fill="#000000" font-size="5px" font-weight="bold" font-family="'Helvetica Neue', Helvetica, Arial-Unicode, Arial, Sans-serif">from the Noun Project</text></svg>